:SAMPLES-PER-SECOND 30
:FULLY-SPECIFIED
:DEGREES
493
root  33.7854 34.0416 13.8613 -170.119 36.9403 -175.824
LeftUpLeg  -8.89997 12.3656 11.3001
LeftLeg  14.8038 23.8045 4.53522
LeftFoot  5.21546 -0.109861 2.24389
LeftToes  -23.4618 2.48695e-006 -1.03773e-007
Spine  0.85102 0.170315 1.54846
Spine1  1.22613 0.27335 3.0833
RightShoulder  0.189445 8.47811 9.64438
RightArm  -26.6672 -15.009 70.5805
RightForeArm  33.0435 13.1589 2.35663
RightHand  0.220437 -5.14908 -4.66664
LeftShoulder1  0.0987614 -2.14024 -11.1007
LeftArm  -12.1133 12.6788 -70.5917
LeftForeArm  32.3634 -14.0926 -2.52994
LeftHand  0.104669 3.56654 3.16252
HEad  -15.2081 -26.3846 5.78413
RightUpLeg  -12.4952 -6.83554 3.76389
RightLeg  17.2217 26.0393 6.04761
RightFoot  -1.98727 -0.0155176 -0.96491
RightToes  -22.0468 -0.101678 -0.202326
494
root  33.7898 34.0408 13.8622 -170.123 36.9362 -175.818
LeftUpLeg  -8.8996 12.3645 11.314
LeftLeg  14.8249 23.8053 4.54414
LeftFoot  5.2154 -0.109854 2.24378
LeftToes  -23.5523 2.48695e-006 -1.03773e-007
Spine  0.838669 0.169754 1.5468
Spine1  1.20121 0.270558 3.07868
RightShoulder  0.189433 8.46961 9.61812
RightArm  -26.6772 -15.0303 70.6121
RightForeArm  32.9795 13.1837 2.36128
RightHand  0.220033 -5.15102 -4.64359
LeftShoulder1  0.0987614 -2.15733 -11.1065
LeftArm  -12.0878 12.7212 -70.6204
LeftForeArm  32.3379 -14.0992 -2.53119
LeftHand  0.104793 3.53229 3.14644
HEad  -15.1249 -26.3284 5.68321
RightUpLeg  -12.4976 -6.81484 3.77415
RightLeg  17.2522 26.0084 6.055
RightFoot  -2.00046 -0.0151627 -0.970425
RightToes  -22.0557 -0.101678 -0.202326
495
root  33.7936 34.0394 13.863 -170.131 36.9272 -175.815
LeftUpLeg  -8.90022 12.3546 11.3259
LeftLeg  14.8499 23.8037 4.55426
LeftFoot  5.21498 -0.109823 2.24331
LeftToes  -23.6127 2.48695e-006 -1.03773e-007
Spine  0.82724 0.166719 1.54605
Spine1  1.17823 0.26461 3.07405
RightShoulder  0.189442 8.44335 9.60847
RightArm  -26.6793 -15.0502 70.6316
RightForeArm  33.004 13.2081 2.36579
RightHand  0.219888 -5.12172 -4.61187
LeftShoulder1  0.0987614 -2.15581 -11.1284
LeftArm  -12.0719 12.7589 -70.6322
LeftForeArm  32.3446 -14.1052 -2.5323
LeftHand  0.104897 3.51476 3.14185
HEad  -15.0457 -26.2615 5.59474
RightUpLeg  -12.5003 -6.78126 3.78004
RightLeg  17.2811 25.9738 6.06077
RightFoot  -2.01777 -0.0146898 -0.977773
RightToes  -22.0597 -0.101678 -0.202326
496
root  33.7989 34.0378 13.8637 -170.158 36.8536 -175.807
LeftUpLeg  -8.91518 12.3809 11.3536
LeftLeg  14.9078 23.7061 4.56078
LeftFoot  5.17351 -0.107945 2.21409
LeftToes  -23.5916 2.48695e-006 -1.03773e-007
Spine  0.816637 0.150704 1.54667
Spine1  1.15651 0.232668 3.07099
RightShoulder  0.189438 8.43534 9.59527
RightArm  -26.6292 -15.0943 70.654
RightForeArm  32.949 13.2319 2.37025
RightHand  0.22052 -5.1079 -4.63966
LeftShoulder1  0.0987614 -2.21423 -11.131
LeftArm  -11.9758 12.8161 -70.6162
LeftForeArm  32.2855 -14.1372 -2.53834
LeftHand  0.104754 3.5567 3.16228
HEad  -14.8844 -26.2361 5.45787
RightUpLeg  -12.4807 -6.89404 3.80153
RightLeg  17.3347 25.9996 6.09093
RightFoot  -2.05923 -0.0132723 -0.999799
RightToes  -21.9323 -0.101678 -0.202326
497
root  33.7984 34.0362 13.8683 -170.196 36.7658 -175.802
LeftUpLeg  -8.94102 12.2948 11.3733
LeftLeg  14.9849 23.6881 4.58948
LeftFoot  5.15087 -0.107187 2.20231
LeftToes  -23.4891 2.48695e-006 -1.03773e-007
Spine  0.813089 0.131804 1.55079
Spine1  1.14288 0.194934 3.07827
RightShoulder  0.189465 8.39953 9.60691
RightArm  -26.6053 -15.0984 70.6431
RightForeArm  32.9178 13.2396 2.3717
RightHand  0.219296 -5.14054 -4.59035
LeftShoulder1  0.0987614 -2.22769 -11.1299
LeftArm  -11.9513 12.8056 -70.6292
LeftForeArm  32.2975 -14.1176 -2.53466
LeftHand  0.104383 3.55965 3.13143
HEad  -14.7173 -26.1972 5.35959
RightUpLeg  -12.4692 -6.90409 3.81133
RightLeg  17.3851 25.9227 6.09732
RightFoot  -2.07272 -0.0130429 -1.00336
RightToes  -22.033 -0.101678 -0.202326
